<svg version="1.2" xmlns="http://www.w3.org/2000/svg" viewBox="0 0 140 110" width="140" height="110">
	<title>thin_lines_arrows_set-ai</title>
	<style>
		.s0 { fill: #fefefe } 
	</style>
	<g id="Objects">
		<g id="&lt;Group&gt;">
			<path id="&lt;Compound Path&gt;" fill-rule="evenodd" class="s0" d="m0.6 20.4l-0.6-19.2c-0.1-0.4 0.1-0.7 0.5-1 0.3-0.2 0.7-0.2 1-0.1l17.8 7.5c0.6 0.3 0.8 1 0.6 1.5-0.3 0.6-0.9 0.9-1.5 0.6l-14.1-5.9c8.1 11.4 29.3 38 54.8 45.4q-0.6-4.5-0.6-8.9c0.1-8.1 1.7-19.6 9-28.3 3.3-4 7.8-7 12.7-8.6 5.2-1.8 10.5-1.8 15.1 0 5.3 2 9.6 6.3 12 12.2 2.7 6.5 2.6 14-0.2 20.1-2.5 5.4-6.8 9.7-12.9 12.8-5.2 2.6-11.5 4.3-18.2 4.8q-7 0.6-14.1-1c1 6 2.8 11.9 5.4 17.4 4.3 9.3 10.6 17.7 18.2 24.1 14.4 12.2 31.3 16.1 53.1 12.3 0.6-0.1 1.2 0.3 1.3 1 0.1 0.6-0.3 1.2-1 1.3-10.8 1.9-20.4 1.9-29.1 0-9.5-2.1-18-6.3-25.8-12.9-7.9-6.6-14.3-15.2-18.8-24.8-2.8-6.1-4.7-12.5-5.8-19-10.4-2.8-21.1-9-32-18.6-11.4-10-20.2-21.3-25-28.1l0.5 15.3c0 0.7-0.4 1.2-1.1 1.2-0.4 0-0.7-0.2-1-0.5q-0.1-0.2-0.2-0.6zm60.2 19.9q0 4.8 0.7 9.6c3.5 0.8 7.2 1.3 10.9 1.3q1.7 0 3.4-0.1c20.4-1.7 27.2-12 29.2-16.4 2.6-5.5 2.6-12.3 0.2-18.3-2.2-5.2-6-9.1-10.7-10.9-4.1-1.6-8.8-1.6-13.6 0-4.4 1.5-8.6 4.3-11.6 7.9-6.9 8.3-8.4 19.2-8.5 26.9z"/>
		</g>
	</g>
</svg>